<?xml version="1.0" standalone="no"?>
<!DOCTYPE svg PUBLIC "-//W3C//DTD SVG 20010904//EN"
 "http://www.w3.org/TR/2001/REC-SVG-20010904/DTD/svg10.dtd">
<svg version="1.0" xmlns="http://www.w3.org/2000/svg"
 width="500.000000pt" height="500.000000pt" viewBox="0 0 500.000000 500.000000"
 preserveAspectRatio="xMidYMid meet">
<metadata>
Created by potrace 1.16, written by Peter Selinger 2001-2019
</metadata>
<g transform="translate(0.000000,500.000000) scale(0.100000,-0.100000)"
fill="#000000" stroke="none">
<path d="M2106 3323 c-39 -10 -96 -54 -123 -95 l-28 -42 -3 -513 c-2 -496 -2
-514 17 -552 25 -48 84 -98 131 -111 20 -6 224 -10 480 -10 l445 -1 210 -204
c116 -113 213 -205 218 -205 4 0 7 92 7 205 l0 205 134 0 c152 0 201 12 255
63 72 69 71 56 71 598 0 337 -3 496 -11 520 -19 55 -55 95 -111 123 l-52 26
-810 -1 c-446 -1 -820 -4 -830 -6z m504 -252 c0 -15 -8 -21 -32 -23 -42 -4
-50 -28 -9 -28 26 0 31 -4 31 -25 0 -21 -5 -25 -31 -25 -44 0 -37 -34 9 -38
24 -2 32 -8 32 -23 0 -17 -7 -19 -60 -19 l-60 0 0 100 0 100 60 0 c53 0 60 -2
60 -19z m88 -6 c6 -14 16 -25 22 -25 6 0 16 11 22 25 8 18 19 25 40 25 34 0
35 -5 3 -52 -14 -20 -25 -42 -25 -48 0 -6 14 -31 30 -56 l31 -44 -30 0 c-20 0
-36 8 -50 28 l-21 27 -21 -27 c-14 -20 -30 -28 -50 -28 l-30 0 31 44 c36 54
37 61 5 108 -31 46 -31 48 3 48 21 0 32 -7 40 -25z m452 7 c0 -10 -18 -44 -40
-75 -22 -30 -40 -58 -40 -61 0 -3 18 -6 40 -6 33 0 40 -3 40 -20 0 -18 -7 -20
-75 -20 -91 0 -95 9 -35 93 22 30 40 58 40 61 0 3 -18 6 -40 6 -33 0 -40 3
-40 20 0 18 7 20 75 20 66 0 75 -2 75 -18z m150 -2 c0 -16 -7 -20 -30 -20 -39
0 -41 -27 -2 -32 19 -2 27 -9 27 -23 0 -14 -8 -21 -27 -23 -20 -2 -28 -9 -28
-23 0 -14 7 -19 30 -19 23 0 30 -4 30 -20 0 -18 -7 -20 -60 -20 l-60 0 0 100
0 100 60 0 c53 0 60 -2 60 -20z m140 -47 l35 -68 3 68 c3 59 5 67 22 67 19 0
20 -7 20 -100 l0 -100 -32 0 c-30 0 -36 6 -70 68 l-37 67 -1 -67 c0 -66 -1
-68 -25 -68 l-25 0 0 100 0 100 38 0 c36 0 39 -2 72 -67z m-881 -304 c74 -74
5 -194 -96 -167 -87 23 -99 142 -18 186 38 21 81 14 114 -19z m440 17 c90 -47
53 -186 -49 -186 -101 0 -138 129 -52 183 33 20 65 21 101 3z m482 -15 c64
-64 23 -171 -66 -171 -49 0 -78 18 -95 60 -41 99 85 186 161 111z"/>
<path d="M1598 2986 c-77 -28 -127 -79 -147 -151 -16 -57 -15 -950 1 -1013 8
-33 25 -60 58 -93 58 -58 102 -69 270 -69 l120 0 0 -199 c0 -117 4 -202 10
-206 5 -3 103 87 218 200 l209 205 440 0 c242 0 443 3 447 7 4 4 -46 60 -111
125 l-118 118 -405 0 c-227 0 -434 5 -470 10 -78 13 -160 64 -202 126 -54 81
-58 121 -58 556 l0 398 -112 0 c-68 -1 -128 -6 -150 -14z"/>
</g>
</svg>
